<?xml version="1.0" encoding="UTF-8"?>
<svg id="Layer_1" data-name="Layer 1" xmlns="http://www.w3.org/2000/svg" viewBox="0 0 1217.415 429.603">
  <defs>
    <style>
      .cls-1 {
        fill: #266b6f;
      }

      .cls-2 {
        fill: #68aa94;
      }

      .cls-3 {
        fill: #20656b;
      }

      .cls-4 {
        fill: #f58271;
      }

      .cls-5 {
        fill: #22676d;
      }

      .cls-6 {
        fill: #f48170;
      }

      .cls-7 {
        fill: #276e6f;
      }

      .cls-8 {
        fill: #f58170;
      }

      .cls-9 {
        fill: #69ac94;
      }

      .cls-10 {
        fill: #6bad94;
      }

      .cls-11 {
        fill: #f57e6c;
      }

      .cls-12 {
        fill: #256b6d;
        font-family: ArnoPro-Caption, 'Arno Pro';
        font-size: 68.179px;
      }

      .cls-13 {
        fill: #68ab94;
      }

      .cls-14 {
        fill: #68ac95;
      }

      .cls-15 {
        letter-spacing: .061em;
      }

      .cls-16 {
        letter-spacing: .06em;
      }

      .cls-17 {
        letter-spacing: .023em;
      }

      .cls-18 {
        letter-spacing: .05em;
      }

      .cls-19 {
        letter-spacing: .05em;
      }

      .cls-20 {
        letter-spacing: .05em;
      }

      .cls-21 {
        letter-spacing: .04em;
      }

      .cls-22 {
        fill: #f48271;
      }

      .cls-23 {
        letter-spacing: .035em;
      }

      .cls-24 {
        fill: #6aad94;
      }

      .cls-25 {
        fill: #67aa93;
      }
    </style>
  </defs>
  <path class="cls-14" d="M367.581,177.191c-2.272,12.823-4.942-1.322-6.988-5.494-1.597,1.891,1.908,26.076-1.994,22.988-1.837-1.454-6.741-21.051-6.988-24.525-.988-13.871,2.353-26.921,8.95-38.989,3.46-6.328,25.432-27.255,24.019-28.468-1.113-.956-11.468,4.05-13.312,5.175-9.813,5.985-17.845,20.957-7.181-1.18l-17.023,16.983,2.023-12.984c-4.535,2.657-14.344,20.064-18.023,20.984-4.414,1.103,6.017-16.264,5.029-17.965-11.5,10.724-28.241,51.597-16.006,6.981-4.665,2.657-16.455,26.677-18.474,27.529-10.239,4.323,4.736-28.196,6.742-31.262,10.095-15.43,29.596-26.286,47.859-28.141,3.771-.383,27.271,1.738,27.361.373.181-2.747-28.27-12.647-32.993-8.517l7.99-5.004c-7.783-6.126-17.537,3.687-25.991,3.003l7.994-8.975c-4.25-1.668-21.816,10.106-22.987,8.981-1.556-1.495,7.957-8.59,7.988-9.5.114-3.431-23.027,12.452-23.988,11.5-2.103-2.084,8.968-11.73,8.988-12.5.113-4.43-23.155,16.115-22.976,10.03.097-3.302,11.246-17.078,14.488-19.518,20.446-15.389,48.841-7.415,69.161,3.826,2.647,1.465,16.568,12.912,17.32,12.167,1.521-1.506-20.449-21.265-21.982-23.505,2.575-2.855,16.972,7.39,15.984,3.023-1.11-4.902-27.177-18.351-26.965-20.017.685-5.385,17.343,5.211,13.964.523-2.389-3.315-27.272-13.411-26.964-15.523.684-4.687,13.98,2.356,16.487-.506-3.584-7.076-32.413-8.617-33.506-10.002-3.515-4.453,17.69-5.194,19.536-5.031,4.3.38,17.749,6.69,18.458,6.027.795-.743-11.618-10.547-9.993-11.981,4.793-4.23,27.994,19.527,29.5,24.988,3.098-2.972-8.356-18.952-4.023-17.983,6.344,1.418,16.746,33.347,18.517,39.989v-16.5c0-.185,1.606-1.778,1.987-1.498,2.368,1.739,2.79,34.445,8,38.997,5.988-19.258,20.804-42.837,41.007-48.504-.802,1.045-9.486,9.001-8.993,9.494.531.531,10.657-6.537,13.023-7.464,6.658-2.611,39.667-8.542,39.965,1.994.061,2.159-22.622.064-26.998,2.973-4.25,2.826,12.828-.041,14.006,4.494l-25.988,5.031c2.93,3.017,13.438-1.83,13.985,3.978-10.36.352-20.945,2.287-29.97,7.531l14.975,2.461c-9.16,2.286-19.961,3.933-25.998,12.001l12.994-.494c-3.141-1.917-32.884,19.549-26.502,20.498,1.534.228,21.678-11.148,28.309-12.691,32.456-7.553,70.054-.997,74.192,37.693l-18.5-17.988c16.657,33.922-4.063,2.559-15-3,19.828,33.188-2.965,2.74-11.015,1.009-3.994-.859,6.777,9.693,4.515,11.979-2.007,2.028-16.513-11.215-20.517-11.977-4.133-.787,5.528,7.142,4.523,7.971-1.913,1.578-19.941-11.008-24.991-5.003l7.99,4.003c-2.877-2.719-28.577.256-21.514,3.008,7.873,3.068,19.192,3.275,28.871,7.148,27.458,10.987,48.029,39.889,39.125,69.845-5.761-5.192-6.106-23.299-10.498-27.985-3.597-3.838,3.117,20.308-1.466,19.985-3.513-.247-9.792-27.052-12.533-30.98l-1.467,19.98-11.517-26.989v16l-12.016-22.99c.431,29.28-2.213,3.085-10.462-4.031-6.119-5.278,1.774,5.038-1.016,9.015-4.289-7.098-8.339-14.697-16.493-17.994,26.798,63.821,36.564,138.548,29.963,207.475-.41,4.285-5.97,25.606-4.977,26.519,2.493,2.292,54.955,7.854,65.342,17.166,3.856,3.457.787,2.874-2.72,2.722-8.765-.378-64.137-11.608-72.272-14.731-2.242-.861-5.756-1.615-6.82-4.174-2.135-5.137,5.554-32.173,6.446-40.503,7.024-65.59-4.077-129.361-23.987-191.474-7.04,4.807-8.392,14.167-9,21.993l-3.972-7.985c-2.888,2.537-.903,22.494-4.001,20.988-.615-.299-4.015-17.177-4.015-9.497v21.5l-7-13v27c-4.83-1.381-4.296-11.173-5.012-14.994-1.017-.416-1.988,2.291-1.988,2.494,0,5.56.869,15.094,0,20Z"/>
  <path class="cls-22" d="M310.558,219.702c-.386-.221-1.849-.352-1.992.501-.901,5.389,8.272,44.055,11.121,49.881,5.064,10.357,19.865,15.171,24.473,21.526,10.311,14.219-28.308-7.952-30.835-7.737-6.167.523-41.281,27.128-44.734,25.386-9.056-4.567,14.188-30.326,15.561-36.496,5.929-26.648-16.274-1.023-23.561,6.44-3.872,3.966-6.62,12.313-11.47,15.53-30.198,20.03-81.626,34.487-118.037,26.952-1.256-.26-3.376-.89-1.523-2.511,1.423-1.245,30.697-8.626,36.258-10.743,10.304-3.922,20.319-8.465,29.672-14.328,9.133-5.725,77.741-58.749,77.035-63.795-.327-2.334-33.99-23.513-37.455-28.61-1.615,8.108,23.563,27.08,18.5,32.987-1.442,1.682-35.13-18.023-40.497-17.99-16.407-15.004-22.952-37.466-36.533-54.467-2.504-3.134-27.505-29.116-29.47-28.53-3.416,1.019-.599,42.493,3.472,48.407-4.246,3.814-17.192,33.262-18.962,34.079-9.784,4.517-38.275-17.004-48.518-16.087-1.447.129-17.154,14.135-23.523,17.055-16.559,7.592-38.414,9.833-55.955,15.532l53.68-48.807c7.636-6.691,18.361-3.625,26.715-5.285,15.377-3.055,46.421-58.545,60.129-58.97,14.847-.461,48.637,45.872,63.951,48.079,9.46,1.364,10.28-3.488,20.844,3.164,10.692,6.733,42.304,44.096,51.732,46.347,9.68,2.31,15.324-21.151,31.267-11.347,20.806,12.795,41.087,45.594,58.181,58.82,6.132,4.744,19.621,7.7,27.161,11.839,1.767.97,24.461,14.25,15.876,16.919-2.731.849-38.109-12.341-43.878-13.917l-58.687-59.824Z"/>
  <path class="cls-8" d="M1179.876,248.7c2.4,2.064-24.26,45.488-22.449,47.383,4.862,5.087,40.242-50.668,51.105-51.595,13.479-1.15,2.974,4.534,2.157,9.67-2.265,14.23,14.559,50.727-20.514,50.964-14.692.099-16.841-16.034-8.03-17.159,7.193-.919.954,11.471,12.06,8.744,9.535-2.341,6.203-34.322,4.383-34.698-1.707-.353-18.283,23.426-22.01,27.046-6.18,6.003-19.168,12.68-23.321,17.42-6.256,7.14-10.119,21.362-18.262,29.963-25.102,26.514-51.659.693-20.234-20.234,6.588-4.387,21.047-8.086,25.633-11.783,1.419-1.144,6.056-9.247,5.381-9.99-.452-.498-7.552,6.474-11.066,7.632-20.426,6.728-19.514-11.725-20.93-11.784-1.51-.063-13.267,15.409-25.705,14.862-24.891-1.095,8.422-42.233,4.983-46.515-3.837-4.778-16.205,6.777-18.746,9.645-5.49,6.196-17.932,34.158-19.632,35.244-1.904,1.218-12.079,1.724-12.782-.341-.454-1.335,5.392-8.837,4.533-11.233-6.731,10.301-34.302,23.758-32.019,1.665-7.793,8.531-33.658,21.241-33.303.381.182-10.699,16.755-30.54,16.664-32.417-.084-1.756-9.955-2.491-11.051-2.085s-9.305,17.094-11.544,20.237c-10.457,14.676-30.994,31.633-50.431,25.805-3.695-1.108-5.929-6.196-6.36-6.103-3.063.661-13.099,34.378-19.921,35.787-1.295.268-8.756.143-9.623-.432-3.759-2.497,36.619-74.336,37.393-82.152,5.468-2.265,16.189-3.946,12.096,4.383,7.624-9.131,26.564-9.972,27.904,4.54,1.386,15.014-14.02,28.551-14.175,30.807-.385,5.591,28.342-26.561,28.132-35.084-.089-3.591-6.556-8.459,4.542-12.887,12.8-5.108,8.366,6.226,8.895,6.802.85.925,14.937-.947,15.791,7.991.726,7.598-19.344,29.069-15.676,36.374,3.612,7.194,19.214-10.363,21.481-13.199,4.659-5.83,15.096-28.583,16.869-30.105,1.919-1.648,10.377-2.795,12.285-1.502,3.366,2.28-19.935,38.787-17.399,44.791,3.091,7.317,21.781-14.508,23.988-17.35,2.696-3.471,5.363-6.869,7.65-10.642,1.813-2.99,6.47-16.716,8.176-17.599,1.495-.775,10.187-.899,11.248.409.943,1.163-3.697,7.196-2.522,9.149,5.684-6.247,14.915-12.528,23.921-10.601,19.33,4.137-10.196,37.059-7.56,45.741,2.115,6.965,15.915-7.333,18.171-9.755,13.838-14.851,21.915-42.6,49.247-36.819,3.448.729,4.88,3.913,5.204,3.962,1.907.291,2.039-3.333,3.315-3.333,1.664,0,11.599-.393,12.056,0ZM1152.238,254.723c-14.272,1.589-37.257,43.735-16.194,39.52,7.931-1.587,38.387-41.991,16.194-39.52ZM947.716,258.834c-17.449.65-38.627,50.931-13.182,36.782,7.688-4.275,29.976-37.407,13.182-36.782ZM1137.471,313.564c-1.524-1.38-35.419,14.245-28.333,25.406,6.643,10.463,29.883-24.002,28.333-25.406Z"/>
  <path class="cls-13" d="M339.581,349.691c1.909.276,2.454.445,2.064.536.008.268.017-.127-.041,1.05-.188,3.86-1.953,26.157,1.115,28.271,4.169,2.871,6.891-3.787,7.345-3.843,1.298-.158,23.87,7.286,24.862,8.139,3.052,2.625.637,7.942,5.188,8.884,10.325,2.139,4.555-32.543,5.385-33.651,0,0,54.975,15.858,56.173,26.106s-15.245,18.306-22.833,21.267c-25.12,9.804-63.335,10.59-89.28,3.76-15.591-4.104-18.579-15.003-39.761-18.239-28.842-4.406-92.166-.469-115.76-16.24-25.496-17.042,40.571-24.978,49.071-26.012,37.593-4.57,79.135-5.75,116.47-.03ZM364.568,392.713c-.635-1.004-22.032-6.933-22.982-6.015-5.758,5.562,28.993,15.514,22.982,6.015ZM386.423,398.845c-1.674-1.927-11.792-1.386-9.837,2.342,2.03,3.87,13.947,2.389,9.837-2.342Z"/>
  <path class="cls-8" d="M744.609,262.451c1.395,1.477,29.1-28.259,28.442,0,6.134-6.055,13.852-13.279,23.286-10.492,18.973,5.606-13.689,39.803-8.727,46.251,6.398,8.315,21.291-22.291,26.467-18.378,4.716,3.566-21.758,36.867-35.978,26.368-13.339-9.848,15.195-40.149,11.782-44.226-4.951-5.915-15.398,7.347-18.016,10.76-4.775,6.223-16.489,33.501-20.343,34.59-1.651.467-9.546.83-10.267-1.113-.845-2.277,21.267-41.037,20.005-44.057-3.155-7.547-18.279,10.366-20.347,13.13-3.647,4.872-16.095,31.46-17.816,32.057-1.537.533-11.368.729-11.936-1.097-.186-.598,5.649-10.755,4.985-11.484-1.588-1.745-31.53,32.783-33.462-.85-7.111,10.218-34.158,25.548-30.115.851-22.811,26.409-45.141,9.116-24.588-21.175,7.232-10.659,23.236-26.215,37.185-21.804,2.728.863,4.926,5.504,5.402,5.563.54.066,1.046-3.953,3.51-4.926,1.712-.676,11.373-1.682,11.771,1.097.359,2.507-27.594,40.607-21.608,45.114,5.142,3.871,19.133-15.604,21.116-19.443,9.011-17.447,24.468-69.592,47.478-74.172,27.108-5.395-5.409,40.86-10.854,47.627-10.139,12.6-24.558,19.233-25.79,35.855-.135,1.816-.534,8.008.01,9.115,4.318,8.786,27.607-20.394,29.84-23.838,2.42-3.733,8.471-18.951,10.247-20.194,1.896-1.328,9.071-2.278,10.474-.533,1.811,2.251-2.884,8.631-2.153,9.405ZM704.455,262.451c12.937-13.301,27.06-30.777,30.931-49.313-14.4,13.06-22.838,31.766-30.931,49.313ZM657.378,258.408c-15.196,2.898-39.234,58.091-11.893,35.519,5.342-4.41,33.192-39.581,11.893-35.519Z"/>
  <path class="cls-4" d="M88.581,283.691c-11.065,1.396-25.961,8.667-32.511,9.055-5.458.324-17.646-3.89-24.949-4.086-21.854-.585-41.939,15.069-22.35-14.279,10.62-15.91,32.231-32.911,49.127-41.873,4.448-2.359,23.425-8.244,24.437-9.065,1.144-.928.396-6.929,5.74-6.846,5.58.086,4.113,5.687,4.564,6.028.958.725,19.144.591,23.987,1.519,12.689,2.432,67.766,27.533,68.97,40.106.583,6.091-17.867,4.86-25.223,6.732-8.173,2.08-21.774,11.6-27.541,12.484-8.16,1.252-25.645-.417-36.251.223-2.416.146-3.683-.545-8,0ZM94.587,229.698l36.496,45.97c2.227-2.633,3.973-4.147,3.096-8.004-1.221-5.376-32.919-43.521-39.592-37.966ZM78.574,234.698c-4.667-4.844-27.089,41.775-21.987,47.987l21.987-47.987Z"/>
  <path class="cls-8" d="M522.819,287.159c3.683,4.154-1.118,16.795,16.854,12.693,26.989-6.16,54.396-117.562,86.059-114.416,1.308.13,4.604.256,3.713,2.549-.379.974-11.865,9.355-15.308,14.219-2.368,3.344-26.199,45.973-24.595,48.148.801,1.086,10.633.809,12.654.608,46.659-4.637,76.424-82.836,4.416-77.067-23.683,1.898-55.475,23.817-52.822,50.27.923,9.206,16.802,13.345,8.728,15.387-12.94,3.273-23.107-7.857-22.868-20.319.609-31.813,42.843-51.807,70.233-52.877,83.104-3.244,60.625,88.552-11.612,93.213-2.719.175-11.661-1.895-12.937-1.313-3.836,1.749-15.278,41.209-37.97,48.458-8.222,2.626-17.607,3.344-24.747-2.313-10.763-8.528-4.787-22.867.202-17.241Z"/>
  <path class="cls-8" d="M900.31,209.841c13.754-1.634,26.005,3.459,24.301,19.32-.603,5.614-5.609,14.262-12.454,10.8-3.84-1.942.952-6.034,1.444-9.339,2.91-19.533-20.352-15.794-25.579-2.305-9.314,24.037,23.501,38.727,7.945,70.305-16.738,33.977-75.969,23.331-60.463-9.744,2.152-4.589,9.515-11.304,14.741-11.113,9.049.33.199,6.999-1.119,9.77-15.41,32.389,25.984,29.496,35.477,8.039,11.348-25.649-23.433-42.587-8.871-69.567,4.217-7.813,15.854-15.129,24.577-16.165Z"/>
  <path class="cls-13" d="M345.057,334.2c-1.194,1.287-3.096,7.095-4,9-33.859-4.904-69.351-4.774-103.477-1.977-11.474.94-132.008,14.252-78.2,39.154,22.631,10.473,70.816,14.098,100.118,15.481,6.18.292,29.053-.938,41.044,5.923-2.753,2.873-26.419,2.123-33.032,2.125-6.394.002-15.121.556-22.87.185-15.792-.755-34.447-2.622-44.76-4.213-16.231-2.504-94.924-15.497-61.146-45.502,33.797-30.023,161.839-23.695,206.324-20.176Z"/>
  <path class="cls-2" d="M408.581,347.691c100.405,28.126,47.428,77.613-26.465,81.035-3.635.168-16.872,1.429-29.873.593-14.794-.951-29.273-7.025-30.961-7.714-8.031-3.276-12.046-5.178-21.216-11.184-5.879-3.851-9.491-4.553-16.745-5.556-10.198-1.41-21.964-1.033-24.923-1.033-3.53,0,1.352-.53,10.927-1.603,13.014-1.459,31.08-.503,31.216-.449,3.691,1.465,11.583,7.955,21.593,11.496,13.39,4.737,29.642,6.228,31.972,6.389,49.934,3.453,162.555-24.373,55.481-61.972-.004-.002-.009-.003-.014-.004-21.153-5.774-8.834-3.212-.993-9.998Z"/>
  <path class="cls-1" d="M373.607,338.717c-9.904,14.682-8.908-3.042-17.274-1.835-2.472.357-6.56,5.794-6.726,7.835-.288,3.532-.026,3.859-.026,6.621,0,.006.005,1.414,0,1.49-.26,3.732.834,14.843,1.031,15.885.229,1.212,22.477,6.811,23.711,6.803,4.527-.031,1.604-13.398,2.285-18.798.263-2.087.282-3.973,1-6,1.061-2.995,5.268-6.265,6.974-9.026.248-.206.645-.394.888-.498.426-.182.288-.134.688-.316.202-.092.631-.236.838-.317,8.134-3.213,17.8-2.156,21.613,7.156l-1.452,1.187c-.867.709-1.903,1.602-2.622,2.661-1,1.472-3.186,1.453-4.098-.074-2.725-4.565-7.183-8.941-12.829.227-1.543,2.505-1.873,5.381-1.909,7.595-.188.735,4.838,35.488-5.557,33.443-4.56-.897-2.136-6.259-5.188-8.884-.992-.853-23.563-8.297-24.862-8.139-.455.055-3.176,6.714-7.345,3.843-3.069-2.114-1.564-24.46-1.245-28.312.125-1.51.1-1.716.137-2.386.225-1.989.137-1.223.225-1.989.082-.711-.041.046.743-4.17.386-2.073,2.806-7.713,4-9,11.974-12.903,18.083,1.206,27,5Z"/>
  <path class="cls-7" d="M96.581,283.691l15.928,100.688c-3.063,10.993-6.955,3.85-8.641-2.479-7.993-30.006-8.228-67.409-15.286-98.209,4.317-.545,5.584.146,8,0Z"/>
  <path class="cls-6" d="M219.586,246.681c-4.552,6.359-18.576-5.074-22.031-8.464-3.81-3.738-37.199-48.043-34.962-50.525,8.162,5.596,62.864,50.787,56.993,58.989Z"/>
  <path class="cls-25" d="M67.386,336.004c4.128-.137,23.01-.841,17.485,5.478-5.758.2-64.499,9.954-65.284,6.691-1.354-5.631,42.495-11.994,47.799-12.17Z"/>
  <path class="cls-24" d="M349.581,344.691c.291-2.027,4.255-7.478,6.726-7.835,8.366-1.207,7.369,16.516,17.274,1.835,1.834.78,8.172,2.193,11,3-1.705,2.761-5.753,5.868-6.915,8.868l-28.085-5.868Z"/>
  <path class="cls-11" d="M1040.795,237.254c10.221-3.014,13.533,7.195,6.432,8.919-8.706,2.113-13.273-6.902-6.432-8.919Z"/>
  <path class="cls-10" d="M402.581,355.691l-15-4c7.583-12.314,11.404-4.021,15,4Z"/>
  <path class="cls-5" d="M364.568,392.713c6.011,9.498-28.739-.453-22.982-6.015.949-.917,22.347,5.012,22.982,6.015Z"/>
  <path class="cls-3" d="M386.423,398.845c4.11,4.731-7.808,6.212-9.837,2.342-1.955-3.728,8.163-4.269,9.837-2.342Z"/>
  <path class="cls-9" d="M376.61,357.16c-.447,5.41,2.242,18.767-2.285,18.798-1.233.008-23.939-5.482-24.501-7.271-.655-2.086-.603-13.958-.243-16.876.042-.344,1.937.261,2.278.327,3.416.663,19.827,4.197,24.751,5.022Z"/>
  <text class="cls-12" transform="translate(516.6 403.239) scale(1.085 1)"><tspan class="cls-16" x="0" y="0">A</tspan><tspan class="cls-23" x="48.884" y="0">D</tspan><tspan class="cls-18" x="101.109" y="0">VENTU</tspan><tspan class="cls-15" x="352.689" y="0">R</tspan><tspan class="cls-19" x="400.822" y="0">E</tspan></text>
  <text class="cls-12" transform="translate(1024.356 403.239) scale(1.048 1)"><tspan class="cls-21" x="0" y="0">C</tspan><tspan class="cls-17" x="50.384" y="0">L</tspan><tspan class="cls-20" x="91.906" y="0">UB</tspan></text>
</svg>