<?xml version="1.0" encoding="UTF-8"?>
<svg id="Layer_1" data-name="Layer 1" xmlns="http://www.w3.org/2000/svg" viewBox="0 0 1751.736 438.25">
  <defs>
    <style>
      .cls-1 {
        fill: #266b6f;
      }

      .cls-2 {
        fill: #68aa94;
      }

      .cls-3 {
        font-family: ArnoPro-Caption, 'Arno Pro';
        font-size: 107.825px;
      }

      .cls-3, .cls-4 {
        fill: #68ab94;
      }

      .cls-5 {
        fill: #20656b;
      }

      .cls-6 {
        fill: #f58271;
      }

      .cls-7 {
        fill: #22676d;
      }

      .cls-8 {
        fill: #f48170;
      }

      .cls-9 {
        fill: #276e6f;
      }

      .cls-10 {
        fill: #f58170;
      }

      .cls-11 {
        fill: #69ac94;
      }

      .cls-12 {
        fill: #6bad94;
      }

      .cls-13 {
        fill: #f57e6c;
      }

      .cls-14 {
        fill: #68ac95;
      }

      .cls-15 {
        letter-spacing: .061em;
      }

      .cls-16 {
        letter-spacing: .06em;
      }

      .cls-17 {
        letter-spacing: .023em;
      }

      .cls-18 {
        letter-spacing: .05em;
      }

      .cls-19 {
        letter-spacing: .05em;
      }

      .cls-20 {
        letter-spacing: .05em;
      }

      .cls-21 {
        letter-spacing: .04em;
      }

      .cls-22 {
        fill: #f48271;
      }

      .cls-23 {
        letter-spacing: .035em;
      }

      .cls-24 {
        fill: #6aad94;
      }

      .cls-25 {
        fill: #67aa93;
      }
    </style>
  </defs>
  <path class="cls-14" d="M512.187,163.846c-2.041,11.517-4.439-1.188-6.276-4.935-1.434,1.699,1.714,23.421-1.791,20.647-1.65-1.306-6.055-18.908-6.277-22.028-.887-12.458,2.113-24.18,8.039-35.019,3.108-5.684,22.843-24.48,21.573-25.57-1-.858-10.301,3.638-11.957,4.648-8.814,5.375-16.028,18.824-6.449-1.06l-15.29,15.254,1.817-11.662c-4.073,2.386-12.884,18.021-16.188,18.847-3.965.991,5.404-14.608,4.517-16.136-10.329,9.632-25.365,46.343-14.376,6.271-4.19,2.387-14.78,23.961-16.593,24.726-9.197,3.883,4.254-25.325,6.055-28.079,9.067-13.859,26.582-23.61,42.986-25.276,3.387-.344,24.494,1.561,24.575.335.163-2.468-25.392-11.359-29.634-7.65l7.176-4.495c-6.99-5.502-15.752,3.312-23.344,2.697l7.18-8.061c-3.817-1.498-19.595,9.077-20.647,8.067-1.398-1.342,7.147-7.715,7.174-8.532.102-3.082-20.682,11.184-21.545,10.329-1.889-1.871,8.055-10.536,8.072-11.227.102-3.979-20.798,14.474-20.637,9.009.087-2.965,10.101-15.339,13.013-17.531,18.364-13.822,43.868-6.66,62.12,3.437,2.378,1.315,14.881,11.597,15.557,10.928,1.366-1.352-18.367-19.1-19.744-21.112,2.313-2.565,15.244,6.637,14.356,2.715-.997-4.403-24.41-16.483-24.219-17.979.615-4.836,15.577,4.681,12.542.469-2.145-2.977-24.495-12.046-24.218-13.942.615-4.21,12.557,2.116,14.809-.454-3.219-6.355-29.113-7.74-30.095-8.984-3.157-3.999,15.889-4.665,17.547-4.518,3.862.341,15.942,6.009,16.579,5.413.714-.667-10.435-9.473-8.976-10.761,4.305-3.8,25.144,17.538,26.496,22.443,2.782-2.669-7.505-17.022-3.613-16.152,5.698,1.274,15.041,29.951,16.632,35.917v-14.82c0-.167,1.443-1.597,1.784-1.346,2.126,1.562,2.506,30.937,7.185,35.026,5.379-17.297,18.686-38.475,36.832-43.566-.72.939-8.52,8.085-8.078,8.527.477.477,9.572-5.871,11.697-6.704,5.98-2.345,35.628-7.672,35.896,1.791.055,1.939-20.319.057-24.249,2.671-3.817,2.538,11.522-.037,12.58,4.036l-23.342,4.518c2.632,2.71,12.07-1.644,12.561,3.573-9.305.316-18.812,2.055-26.918,6.765l13.45,2.211c-8.227,2.053-17.929,3.533-23.351,10.779l11.671-.443c-2.821-1.722-29.536,17.559-23.803,18.411,1.378.205,19.471-10.013,25.427-11.399,29.152-6.784,62.921-.896,66.638,33.855l-16.616-16.156c14.961,30.468-3.649,2.298-13.473-2.695,17.809,29.809-2.663,2.461-9.893.906-3.587-.771,6.087,8.706,4.055,10.759-1.803,1.822-14.831-10.073-18.428-10.757-3.712-.707,4.965,6.415,4.062,7.159-1.718,1.417-17.91-9.887-22.446-4.494l7.177,3.596c-2.584-2.442-25.668.23-19.324,2.702,7.072,2.756,17.238,2.941,25.932,6.42,24.662,9.868,43.139,35.828,35.142,62.733-5.175-4.664-5.484-20.927-9.429-25.135-3.231-3.447,2.8,18.241-1.317,17.951-3.155-.222-8.795-24.297-11.257-27.825l-1.318,17.946-10.344-24.241v14.371l-10.793-20.649c.387,26.299-1.987,2.771-9.397-3.621-5.496-4.741,1.594,4.525-.912,8.097-3.852-6.375-7.49-13.201-14.814-16.162,24.07,57.323,32.841,124.441,26.912,186.35-.369,3.848-5.362,22.999-4.47,23.819,2.239,2.059,49.36,7.055,58.689,15.418,3.463,3.105.706,2.581-2.443,2.445-7.873-.34-57.606-10.426-64.913-13.231-2.014-.773-5.17-1.451-6.125-3.749-1.918-4.614,4.988-28.897,5.79-36.379,6.309-58.912-3.662-116.19-21.545-171.978-6.324,4.318-7.538,12.724-8.084,19.754l-3.568-7.172c-2.594,2.279-.811,20.204-3.593,18.851-.552-.269-3.606-15.428-3.606-8.53v19.311l-6.287-11.676v24.251c-4.339-1.24-3.858-10.035-4.502-13.467-.914-.374-1.785,2.058-1.785,2.24,0,4.993.781,13.558,0,17.964Z"/>
  <path class="cls-22" d="M412.519,157.141c-.51-.292-2.446-.466-2.635.663-1.192,7.129,10.942,58.273,14.71,65.979,6.698,13.699,26.276,20.067,32.371,28.473,13.638,18.807-37.443-10.518-40.786-10.234-8.157.692-54.603,35.882-59.17,33.579-11.978-6.041,18.767-40.113,20.583-48.274,7.843-35.248-21.526-1.353-31.164,8.519-5.122,5.246-8.756,16.287-15.171,20.542-39.944,26.494-107.969,45.616-156.13,35.65-1.661-.344-4.465-1.178-2.014-3.321,1.882-1.647,40.603-11.41,47.959-14.21,13.63-5.187,26.876-11.197,39.248-18.952,12.08-7.572,102.829-77.708,101.895-84.383-.432-3.087-44.959-31.102-49.543-37.842-2.136,10.725,31.167,35.82,24.47,43.633-1.907,2.225-46.468-23.839-53.567-23.796-21.702-19.845-30.359-49.557-48.323-72.045-3.312-4.146-36.381-38.513-38.981-37.737-4.519,1.348-.792,56.207,4.592,64.028-5.616,5.045-22.74,43.996-25.082,45.077-12.942,5.974-50.627-22.491-64.175-21.279-1.914.171-22.69,18.696-31.114,22.559-21.902,10.042-50.811,13.007-74.012,20.545l71.004-64.558c10.101-8.851,24.286-4.795,35.337-6.991,20.34-4.041,61.402-77.438,79.533-78,19.639-.609,64.332,60.675,84.589,63.596,12.512,1.804,13.598-4.614,27.57,4.185,14.142,8.906,55.956,58.327,68.427,61.304,12.804,3.056,20.269-27.977,41.357-15.008,27.52,16.924,54.347,60.309,76.957,77.802,8.111,6.275,25.953,10.185,35.927,15.659,2.337,1.283,32.355,18.849,21,22.379-3.612,1.123-50.407-16.323-58.038-18.409l-77.627-79.131Z"/>
  <path class="cls-10" d="M1683.544,176.23c3.736,3.265-37.769,71.938-34.949,74.935,7.569,8.044,62.649-80.131,79.562-81.597,20.985-1.819,4.63,7.17,3.358,15.293-3.526,22.505,22.667,80.224-31.936,80.599-22.873.157-26.219-25.357-12.501-27.137,11.199-1.453,1.486,18.141,18.776,13.828,14.844-3.703,9.657-54.279,6.824-54.874-2.658-.558-28.464,37.048-34.266,42.773-9.622,9.494-29.84,20.053-36.307,27.55-9.739,11.292-15.753,33.783-28.43,47.386-39.079,41.932-80.423,1.097-31.501-32,10.256-6.938,32.767-12.788,39.905-18.635,2.209-1.809,9.428-14.623,8.378-15.799-.703-.787-11.758,10.239-17.227,12.069-31.799,10.64-30.381-18.542-32.585-18.637-2.351-.1-20.654,24.37-40.018,23.504-38.75-1.732,13.111-66.791,7.758-73.562-5.974-7.557-25.228,10.718-29.185,15.254-8.547,9.798-27.917,54.02-30.563,55.738-2.965,1.926-18.805,2.727-19.899-.54-.707-2.112,8.395-13.975,7.058-17.765-10.48,16.29-53.403,37.573-49.848,2.634-12.132,13.491-52.4,33.593-51.848.602.283-16.92,26.084-48.298,25.944-51.268-.131-2.777-15.498-3.94-17.204-3.298s-14.486,27.035-17.972,32.005c-16.279,23.21-48.251,50.027-78.513,40.81-5.753-1.752-9.231-9.798-9.902-9.651-4.769,1.045-20.392,54.368-31.013,56.597-2.016.423-13.632.227-14.982-.684-5.853-3.949,57.009-117.561,58.215-129.922,8.513-3.582,25.203-6.241,18.832,6.932,11.87-14.44,41.356-15.771,43.442,7.18,2.158,23.745-21.827,45.153-22.068,48.721-.599,8.841,44.124-42.006,43.797-55.485-.138-5.679-10.206-13.377,7.071-20.381,19.928-8.079,13.024,9.846,13.849,10.758,1.323,1.462,23.255-1.497,24.584,12.638,1.13,12.016-30.116,45.972-24.405,57.525,5.623,11.377,29.914-16.389,33.443-20.875,7.253-9.22,23.502-45.203,26.262-47.61,2.987-2.606,16.155-4.419,19.126-2.376,5.241,3.605-31.035,61.34-27.087,70.836,4.812,11.572,33.909-22.944,37.346-27.439,4.197-5.49,8.349-10.863,11.91-16.83,2.822-4.729,10.073-26.435,12.729-27.833,2.327-1.225,15.86-1.421,17.511.647,1.469,1.839-5.755,11.381-3.926,14.469,8.85-9.879,23.219-19.814,37.24-16.765,30.093,6.543-15.874,58.608-11.77,72.339,3.292,11.015,24.777-11.598,28.289-15.427,21.543-23.487,34.118-67.371,76.669-58.228,5.368,1.153,7.598,6.188,8.101,6.266,2.969.46,3.174-5.271,5.16-5.271,2.591,0,18.058-.622,18.769,0ZM1640.516,185.754c-22.219,2.513-58.002,69.167-25.211,62.5,12.347-2.51,59.762-66.409,25.211-62.5ZM1322.112,192.256c-27.165,1.028-60.136,80.546-20.522,58.17,11.969-6.761,46.667-59.159,20.522-58.17ZM1617.527,278.81c-2.373-2.183-55.141,22.528-44.109,40.179,10.342,16.546,46.523-37.959,44.109-40.179Z"/>
  <path class="cls-4" d="M450.908,329.08c2.525.365,3.245.589,2.731.709.011.355.022-.167-.054,1.389-.248,5.106-2.584,34.599,1.475,37.395,5.514,3.798,9.114-5.01,9.716-5.083,1.718-.208,31.573,9.638,32.885,10.766,4.037,3.472.843,10.505,6.862,11.752,13.657,2.829,6.025-43.046,7.123-44.511,0,0,72.716,20.975,74.302,34.53s-20.165,24.213-30.202,28.131c-33.226,12.968-83.775,14.008-118.092,4.973-20.622-5.429-24.575-19.845-52.593-24.125-38.15-5.828-121.91-.62-153.118-21.481-33.724-22.542,53.663-33.039,64.907-34.406,49.725-6.045,104.673-7.606,154.058-.039ZM483.958,385.986c-.84-1.328-29.143-9.17-30.398-7.957-7.616,7.357,38.349,20.52,30.398,7.957ZM512.866,394.096c-2.214-2.549-15.598-1.833-13.012,3.098,2.685,5.118,18.448,3.16,13.012-3.098Z"/>
  <path class="cls-10" d="M1005.91,197.975c2.172,2.335,45.304-44.691,44.279,0,9.55-9.576,21.565-21.001,36.253-16.592,29.537,8.866-21.311,62.947-13.587,73.145,9.961,13.15,33.146-35.254,41.205-29.064,7.343,5.64-33.873,58.305-56.012,41.701-20.767-15.575,23.656-63.495,18.343-69.943-7.708-9.354-23.971,11.619-28.048,17.017-7.434,9.842-25.671,52.981-31.67,54.704-2.57.738-14.861,1.312-15.983-1.759-1.316-3.602,33.109-64.9,31.144-69.675-4.912-11.935-28.456,16.394-31.677,20.765-5.677,7.705-25.057,49.754-27.736,50.698-2.393.843-17.697,1.153-18.582-1.734-.29-.946,8.795-17.008,7.761-18.162-2.472-2.76-49.087,51.847-52.094-1.345-11.071,16.16-53.178,40.403-46.883,1.346-35.513,41.765-70.276,14.417-38.279-33.488,11.259-16.857,36.174-41.459,57.891-34.483,4.247,1.364,7.669,8.705,8.41,8.798.841.105,1.628-6.252,5.464-7.791,2.665-1.069,17.706-2.66,18.325,1.735.559,3.965-42.959,64.219-33.64,71.346,8.005,6.122,29.787-24.678,32.873-30.749,14.028-27.592,38.093-110.059,73.915-117.302,42.202-8.533-8.421,64.619-16.898,75.322-15.785,19.927-38.233,30.416-40.151,56.704-.21,2.873-.831,12.665.016,14.415,6.722,13.894,42.98-32.253,46.456-37.7,3.767-5.903,13.188-29.97,15.953-31.937,2.952-2.1,14.122-3.603,16.307-.843,2.819,3.56-4.491,13.65-3.353,14.874ZM943.397,197.975c20.141-21.035,42.128-48.673,48.155-77.989-22.418,20.655-35.555,50.238-48.155,77.989ZM870.107,191.582c-23.657,4.584-61.08,91.871-18.515,56.172,8.316-6.975,51.674-62.597,18.515-56.172Z"/>
  <path class="cls-6" d="M118.905,241.781c-14.635,1.847-34.339,11.464-43.002,11.977-7.22.428-23.341-5.145-33.001-5.404-28.906-.774-55.474,19.932-29.562-18.887,14.047-21.045,42.633-43.532,64.982-55.386,5.884-3.121,30.984-10.904,32.323-11.99,1.513-1.228.523-9.165,7.593-9.056,7.38.114,5.441,7.522,6.036,7.973,1.267.959,25.323.782,31.728,2.01,16.784,3.217,89.636,36.418,91.228,53.05.771,8.057-23.634,6.429-33.363,8.905-10.81,2.751-28.801,15.343-36.43,16.513-10.793,1.656-33.922-.552-47.95.295-3.195.193-4.871-.721-10.582,0ZM126.849,170.363l48.273,60.805c2.946-3.483,5.255-5.485,4.096-10.587-1.615-7.11-43.543-57.566-52.369-50.219ZM105.67,176.976c-6.173-6.407-35.832,55.256-29.083,63.474l29.083-63.474Z"/>
  <path class="cls-10" d="M660.623,237.052c5.734,6.569-1.741,26.561,26.238,20.074,42.017-9.741,84.685-185.922,133.979-180.946,2.036.206,7.168.405,5.78,4.031-.589,1.54-18.472,14.795-23.832,22.487-3.686,5.289-40.788,72.705-38.289,76.146,1.247,1.717,16.554,1.279,19.7.962,72.64-7.333,118.978-131.005,6.875-121.88-36.87,3.001-86.365,37.667-82.234,79.501,1.437,14.559,26.158,21.105,13.588,24.335-20.145,5.177-35.973-12.425-35.602-32.134.948-50.312,66.7-81.933,109.34-83.624,129.378-5.13,94.383,140.043-18.078,147.415-4.233.277-18.154-2.997-20.141-2.077-5.972,2.766-23.785,65.171-59.112,76.635-12.799,4.154-27.411,5.288-38.526-3.659-16.755-13.487-7.453-36.164.314-27.266Z"/>
  <path class="cls-10" d="M1248.309,114.774c21.412-2.584,40.485,5.47,37.833,30.554-.939,8.879-8.732,22.555-19.389,17.08-5.977-3.071,1.481-9.543,2.248-14.769,4.53-30.892-31.684-24.978-39.822-3.645-14.501,38.014,36.587,61.247,12.37,111.186-26.058,53.734-118.271,36.897-94.13-15.41,3.35-7.258,14.814-17.877,22.95-17.576,14.088.521.31,11.069-1.742,15.45-23.99,51.223,40.452,46.647,55.232,12.714,17.667-40.563-36.481-67.351-13.81-110.019,6.566-12.357,24.682-23.926,38.261-25.565Z"/>
  <path class="cls-4" d="M458.151,308.589c-1.579,1.702-4.096,9.384-5.291,11.904-44.786-6.487-91.732-6.314-136.871-2.615-15.177,1.244-174.609,18.852-103.436,51.79,29.934,13.853,93.669,18.647,132.427,20.477,8.174.386,38.428-1.241,54.289,7.834-3.641,3.8-34.945,2.809-43.692,2.811-8.457.002-20,.735-30.251.245-20.888-.998-45.563-3.468-59.205-5.573-21.469-3.312-125.557-20.498-80.88-60.187,44.704-39.713,214.068-31.342,272.909-26.687Z"/>
  <path class="cls-2" d="M542.175,326.435c132.807,37.202,62.735,102.66-35.005,107.187-4.808.223-22.317,1.89-39.514.784-19.568-1.258-38.72-9.292-40.952-10.203-10.622-4.333-15.934-6.849-28.063-14.794-7.776-5.093-12.554-6.022-22.148-7.349-13.489-1.865-29.053-1.367-32.966-1.367-4.67,0,1.788-.701,14.454-2.12,17.214-1.93,41.11-.665,41.29-.594,4.883,1.938,15.321,10.522,28.562,15.207,17.711,6.266,39.208,8.238,42.29,8.451,66.049,4.567,215.014-32.239,73.386-81.971-.006-.002-.012-.004-.018-.006-27.979-7.638-11.684-4.248-1.313-13.225Z"/>
  <path class="cls-1" d="M495.915,314.565c-13.101,19.42-11.783-4.023-22.848-2.427-3.27.472-8.677,7.664-8.897,10.363-.381,4.671-.035,5.104-.035,8.757,0,.008.007,1.87,0,1.971-.344,4.937,1.103,19.633,1.364,21.011.303,1.603,29.731,9.009,31.363,8.998,5.988-.041,2.121-17.722,3.022-24.865.348-2.761.373-5.255,1.323-7.936,1.403-3.961,6.968-8.287,9.224-11.939.328-.273.853-.521,1.174-.658.564-.241.382-.177.91-.418.267-.121.835-.312,1.108-.419,10.759-4.25,23.544-2.852,28.588,9.466l-1.92,1.569c-1.147.938-2.517,2.12-3.468,3.52-1.322,1.947-4.214,1.922-5.42-.098-3.605-6.038-9.502-11.827-16.969.3-2.04,3.313-2.478,7.118-2.525,10.046-.248.972,6.399,46.94-7.351,44.236-6.032-1.186-2.825-8.28-6.862-11.752-1.312-1.128-31.167-10.974-32.885-10.766-.601.073-4.202,8.88-9.716,5.083-4.059-2.796-2.069-32.354-1.647-37.448.165-1.997.132-2.269.182-3.156.298-2.63.181-1.618.298-2.63.109-.941-.055.061.983-5.516.51-2.742,3.712-10.203,5.291-11.904,15.839-17.068,23.919,1.596,35.713,6.614Z"/>
  <path class="cls-9" d="M129.487,241.781l21.068,133.182c-4.052,14.541-9.2,5.093-11.43-3.279-10.572-39.689-10.884-89.163-20.219-129.903,5.71-.721,7.386.193,10.582,0Z"/>
  <path class="cls-8" d="M292.188,192.827c-6.02,8.411-24.571-6.711-29.141-11.195-5.039-4.944-49.203-63.548-46.245-66.831,10.796,7.402,83.152,67.177,75.386,78.026Z"/>
  <path class="cls-25" d="M90.871,310.975c5.46-.181,30.436-1.113,23.127,7.246-7.616.264-85.314,13.167-86.352,8.851-1.791-7.448,56.209-15.865,63.225-16.097Z"/>
  <path class="cls-24" d="M464.135,322.467c.384-2.681,5.628-9.892,8.897-10.363,11.065-1.597,9.747,21.846,22.848,2.427,2.426,1.032,10.809,2.9,14.55,3.968-2.256,3.652-7.61,7.762-9.146,11.73l-37.149-7.762Z"/>
  <path class="cls-13" d="M1467.019,158.127c15.912-4.767,21.069,11.379,10.014,14.105-13.554,3.342-20.663-10.915-10.014-14.105Z"/>
  <path class="cls-12" d="M534.239,337.017l-19.841-5.291c10.03-16.288,15.085-5.318,19.841,5.291Z"/>
  <path class="cls-7" d="M483.958,385.986c7.951,12.563-38.014-.6-30.398-7.957,1.256-1.213,29.558,6.629,30.398,7.957Z"/>
  <path class="cls-5" d="M512.866,394.096c5.437,6.258-10.327,8.216-13.012,3.098-2.586-4.931,10.798-5.647,13.012-3.098Z"/>
  <path class="cls-11" d="M499.887,338.959c-.591,7.157,2.966,24.824-3.022,24.865-1.631.011-31.665-7.251-32.408-9.617-.866-2.759-.797-18.463-.322-22.323.056-.455,2.562.345,3.013.433,4.518.877,26.226,5.551,32.739,6.643Z"/>
  <text class="cls-3" transform="translate(650.938 420.629) scale(1.068 1)"><tspan class="cls-16" x="0" y="0">A</tspan><tspan class="cls-23" x="77.309" y="0">D</tspan><tspan class="cls-18" x="159.902" y="0">VENTU</tspan><tspan class="cls-15" x="557.773" y="0">R</tspan><tspan class="cls-19" x="633.894" y="0">E</tspan></text>
  <text class="cls-3" transform="translate(1441.425 420.629) scale(1.031 1)"><tspan class="cls-21" x="0" y="0">C</tspan><tspan class="cls-17" x="79.682" y="0">L</tspan><tspan class="cls-20" x="145.348" y="0">UB</tspan></text>
</svg>